<mxfile host="app.diagrams.net" agent="Mozilla/5.0 (Windows NT 10.0; Win64; x64) AppleWebKit/537.36 (KHTML, like Gecko) Chrome/128.0.0.0 Safari/537.36" version="24.7.10">
  <diagram id="Ht1M8jgEwFfnCIfOTk4-" name="Page-1">
    <mxGraphModel dx="1600" dy="669" grid="1" gridSize="10" guides="1" tooltips="1" connect="1" arrows="1" fold="1" page="1" pageScale="1" pageWidth="1169" pageHeight="827" math="0" shadow="0">
      <root>
        <mxCell id="0" />
        <mxCell id="1" parent="0" />
        <mxCell id="UEzPUAAOIrF-is8g5C7q-74" value="&lt;font style=&quot;font-size: 18px;&quot;&gt;AWS Cloud&lt;/font&gt;" style="points=[[0,0],[0.25,0],[0.5,0],[0.75,0],[1,0],[1,0.25],[1,0.5],[1,0.75],[1,1],[0.75,1],[0.5,1],[0.25,1],[0,1],[0,0.75],[0,0.5],[0,0.25]];outlineConnect=0;gradientColor=none;html=1;whiteSpace=wrap;fontSize=12;fontStyle=0;shape=mxgraph.aws4.group;grIcon=mxgraph.aws4.group_aws_cloud_alt;strokeColor=#232F3E;fillColor=none;verticalAlign=top;align=left;spacingLeft=30;fontColor=#232F3E;dashed=0;labelBackgroundColor=#ffffff;container=1;pointerEvents=0;collapsible=0;recursiveResize=0;" parent="1" vertex="1">
          <mxGeometry x="230" y="50" width="900" height="720" as="geometry" />
        </mxCell>
        <mxCell id="YPjytU8IalWfWn2uWI5X-1" value="&lt;font style=&quot;font-size: 18px;&quot;&gt;VPC&lt;/font&gt;" style="points=[[0,0],[0.25,0],[0.5,0],[0.75,0],[1,0],[1,0.25],[1,0.5],[1,0.75],[1,1],[0.75,1],[0.5,1],[0.25,1],[0,1],[0,0.75],[0,0.5],[0,0.25]];outlineConnect=0;gradientColor=none;html=1;whiteSpace=wrap;fontSize=12;fontStyle=0;container=1;pointerEvents=0;collapsible=0;recursiveResize=0;shape=mxgraph.aws4.group;grIcon=mxgraph.aws4.group_vpc2;strokeColor=#8C4FFF;fillColor=none;verticalAlign=top;align=left;spacingLeft=30;fontColor=#AAB7B8;dashed=0;" vertex="1" parent="UEzPUAAOIrF-is8g5C7q-74">
          <mxGeometry x="180" y="70" width="700" height="550" as="geometry" />
        </mxCell>
        <mxCell id="YPjytU8IalWfWn2uWI5X-2" value="&lt;font style=&quot;font-size: 18px;&quot;&gt;Public subnet A&lt;/font&gt;" style="points=[[0,0],[0.25,0],[0.5,0],[0.75,0],[1,0],[1,0.25],[1,0.5],[1,0.75],[1,1],[0.75,1],[0.5,1],[0.25,1],[0,1],[0,0.75],[0,0.5],[0,0.25]];outlineConnect=0;gradientColor=none;html=1;whiteSpace=wrap;fontSize=12;fontStyle=0;container=1;pointerEvents=0;collapsible=0;recursiveResize=0;shape=mxgraph.aws4.group;grIcon=mxgraph.aws4.group_security_group;grStroke=0;strokeColor=#7AA116;fillColor=#F2F6E8;verticalAlign=top;align=left;spacingLeft=30;fontColor=#248814;dashed=0;" vertex="1" parent="YPjytU8IalWfWn2uWI5X-1">
          <mxGeometry x="70" y="40" width="260" height="480" as="geometry" />
        </mxCell>
        <mxCell id="YPjytU8IalWfWn2uWI5X-17" value="&lt;font style=&quot;font-size: 18px;&quot;&gt;BASTION HOST&lt;/font&gt;" style="outlineConnect=0;dashed=0;verticalLabelPosition=bottom;verticalAlign=top;align=center;html=1;shape=mxgraph.aws3.ec2;fillColor=#F58534;gradientColor=none;" vertex="1" parent="YPjytU8IalWfWn2uWI5X-2">
          <mxGeometry x="104" y="120" width="60" height="73" as="geometry" />
        </mxCell>
        <mxCell id="YPjytU8IalWfWn2uWI5X-15" value="&lt;font style=&quot;font-size: 18px;&quot;&gt;NAT GATEWAY&lt;/font&gt;" style="sketch=0;outlineConnect=0;fontColor=#232F3E;gradientColor=none;fillColor=#8C4FFF;strokeColor=none;dashed=0;verticalLabelPosition=bottom;verticalAlign=top;align=center;html=1;fontSize=12;fontStyle=0;aspect=fixed;pointerEvents=1;shape=mxgraph.aws4.nat_gateway;" vertex="1" parent="YPjytU8IalWfWn2uWI5X-2">
          <mxGeometry x="95" y="290" width="78" height="78" as="geometry" />
        </mxCell>
        <mxCell id="YPjytU8IalWfWn2uWI5X-3" value="&lt;font style=&quot;font-size: 18px;&quot;&gt;Private subnet A&lt;/font&gt;" style="points=[[0,0],[0.25,0],[0.5,0],[0.75,0],[1,0],[1,0.25],[1,0.5],[1,0.75],[1,1],[0.75,1],[0.5,1],[0.25,1],[0,1],[0,0.75],[0,0.5],[0,0.25]];outlineConnect=0;gradientColor=none;html=1;whiteSpace=wrap;fontSize=12;fontStyle=0;container=1;pointerEvents=0;collapsible=0;recursiveResize=0;shape=mxgraph.aws4.group;grIcon=mxgraph.aws4.group_security_group;grStroke=0;strokeColor=#00A4A6;fillColor=#E6F6F7;verticalAlign=top;align=left;spacingLeft=30;fontColor=#147EBA;dashed=0;" vertex="1" parent="YPjytU8IalWfWn2uWI5X-1">
          <mxGeometry x="360" y="40" width="290" height="490" as="geometry" />
        </mxCell>
        <mxCell id="YPjytU8IalWfWn2uWI5X-18" value="&lt;font style=&quot;font-size: 18px;&quot;&gt;EC2 LINUX&lt;/font&gt;" style="outlineConnect=0;dashed=0;verticalLabelPosition=bottom;verticalAlign=top;align=center;html=1;shape=mxgraph.aws3.ec2;fillColor=#F58534;gradientColor=none;" vertex="1" parent="YPjytU8IalWfWn2uWI5X-3">
          <mxGeometry x="109" y="30" width="60" height="73" as="geometry" />
        </mxCell>
        <mxCell id="YPjytU8IalWfWn2uWI5X-16" value="&lt;font style=&quot;font-size: 18px;&quot;&gt;EC2 WINDOWS&lt;/font&gt;" style="outlineConnect=0;dashed=0;verticalLabelPosition=bottom;verticalAlign=top;align=center;html=1;shape=mxgraph.aws3.ec2;fillColor=#F58534;gradientColor=none;" vertex="1" parent="YPjytU8IalWfWn2uWI5X-3">
          <mxGeometry x="109" y="200" width="60" height="73" as="geometry" />
        </mxCell>
        <mxCell id="YPjytU8IalWfWn2uWI5X-20" value="" style="sketch=0;outlineConnect=0;fontColor=#232F3E;gradientColor=none;fillColor=#C925D1;strokeColor=none;dashed=0;verticalLabelPosition=bottom;verticalAlign=top;align=center;html=1;fontSize=12;fontStyle=0;aspect=fixed;pointerEvents=1;shape=mxgraph.aws4.rds_instance;" vertex="1" parent="YPjytU8IalWfWn2uWI5X-3">
          <mxGeometry x="100" y="370" width="78" height="78" as="geometry" />
        </mxCell>
        <mxCell id="YPjytU8IalWfWn2uWI5X-19" style="edgeStyle=orthogonalEdgeStyle;rounded=0;orthogonalLoop=1;jettySize=auto;html=1;exitX=0.5;exitY=1;exitDx=0;exitDy=0;" edge="1" parent="YPjytU8IalWfWn2uWI5X-1" source="YPjytU8IalWfWn2uWI5X-3" target="YPjytU8IalWfWn2uWI5X-3">
          <mxGeometry relative="1" as="geometry" />
        </mxCell>
        <mxCell id="YPjytU8IalWfWn2uWI5X-25" style="edgeStyle=orthogonalEdgeStyle;rounded=0;orthogonalLoop=1;jettySize=auto;html=1;exitX=1;exitY=0.5;exitDx=0;exitDy=0;exitPerimeter=0;entryX=0;entryY=0.5;entryDx=0;entryDy=0;entryPerimeter=0;" edge="1" parent="YPjytU8IalWfWn2uWI5X-1" source="YPjytU8IalWfWn2uWI5X-17" target="YPjytU8IalWfWn2uWI5X-18">
          <mxGeometry relative="1" as="geometry" />
        </mxCell>
        <mxCell id="YPjytU8IalWfWn2uWI5X-26" style="edgeStyle=orthogonalEdgeStyle;rounded=0;orthogonalLoop=1;jettySize=auto;html=1;entryX=0;entryY=0.5;entryDx=0;entryDy=0;entryPerimeter=0;" edge="1" parent="YPjytU8IalWfWn2uWI5X-1" source="YPjytU8IalWfWn2uWI5X-17" target="YPjytU8IalWfWn2uWI5X-16">
          <mxGeometry relative="1" as="geometry" />
        </mxCell>
        <mxCell id="YPjytU8IalWfWn2uWI5X-29" style="edgeStyle=orthogonalEdgeStyle;rounded=0;orthogonalLoop=1;jettySize=auto;html=1;" edge="1" parent="YPjytU8IalWfWn2uWI5X-1" source="YPjytU8IalWfWn2uWI5X-18" target="YPjytU8IalWfWn2uWI5X-15">
          <mxGeometry relative="1" as="geometry">
            <Array as="points">
              <mxPoint x="590" y="106" />
              <mxPoint x="590" y="500" />
              <mxPoint x="280" y="500" />
              <mxPoint x="280" y="349" />
            </Array>
          </mxGeometry>
        </mxCell>
        <mxCell id="YPjytU8IalWfWn2uWI5X-33" style="edgeStyle=orthogonalEdgeStyle;rounded=0;orthogonalLoop=1;jettySize=auto;html=1;exitX=1;exitY=0.5;exitDx=0;exitDy=0;exitPerimeter=0;" edge="1" parent="YPjytU8IalWfWn2uWI5X-1" source="YPjytU8IalWfWn2uWI5X-17" target="YPjytU8IalWfWn2uWI5X-20">
          <mxGeometry relative="1" as="geometry">
            <Array as="points">
              <mxPoint x="234" y="200" />
              <mxPoint x="350" y="200" />
              <mxPoint x="350" y="449" />
            </Array>
          </mxGeometry>
        </mxCell>
        <mxCell id="YPjytU8IalWfWn2uWI5X-22" value="&lt;font style=&quot;font-size: 18px;&quot;&gt;Actor&lt;/font&gt;" style="shape=umlActor;verticalLabelPosition=bottom;verticalAlign=top;html=1;outlineConnect=0;" vertex="1" parent="1">
          <mxGeometry x="70" y="230" width="30" height="60" as="geometry" />
        </mxCell>
        <mxCell id="YPjytU8IalWfWn2uWI5X-23" value="&lt;font style=&quot;font-size: 24px;&quot;&gt;TÃšNEL SSH&lt;/font&gt;" style="endArrow=classic;html=1;rounded=0;entryX=0;entryY=0.5;entryDx=0;entryDy=0;entryPerimeter=0;" edge="1" parent="1" source="YPjytU8IalWfWn2uWI5X-22" target="YPjytU8IalWfWn2uWI5X-17">
          <mxGeometry relative="1" as="geometry">
            <mxPoint x="470" y="280" as="sourcePoint" />
            <mxPoint x="570" y="280" as="targetPoint" />
            <Array as="points">
              <mxPoint x="210" y="300" />
            </Array>
          </mxGeometry>
        </mxCell>
        <mxCell id="YPjytU8IalWfWn2uWI5X-28" value="" style="image;aspect=fixed;perimeter=ellipsePerimeter;html=1;align=center;shadow=0;dashed=0;spacingTop=3;image=img/lib/active_directory/internet_globe.svg;" vertex="1" parent="1">
          <mxGeometry x="50" y="530" width="70" height="70" as="geometry" />
        </mxCell>
        <mxCell id="YPjytU8IalWfWn2uWI5X-30" style="edgeStyle=orthogonalEdgeStyle;rounded=0;orthogonalLoop=1;jettySize=auto;html=1;entryX=1;entryY=0.5;entryDx=0;entryDy=0;" edge="1" parent="1" source="YPjytU8IalWfWn2uWI5X-15" target="YPjytU8IalWfWn2uWI5X-28">
          <mxGeometry relative="1" as="geometry" />
        </mxCell>
        <mxCell id="YPjytU8IalWfWn2uWI5X-32" style="edgeStyle=orthogonalEdgeStyle;rounded=0;orthogonalLoop=1;jettySize=auto;html=1;entryX=0;entryY=0.5;entryDx=0;entryDy=0;entryPerimeter=0;" edge="1" parent="1" source="YPjytU8IalWfWn2uWI5X-31" target="YPjytU8IalWfWn2uWI5X-17">
          <mxGeometry relative="1" as="geometry">
            <Array as="points">
              <mxPoint x="440" y="440" />
              <mxPoint x="440" y="316" />
            </Array>
          </mxGeometry>
        </mxCell>
        <mxCell id="YPjytU8IalWfWn2uWI5X-31" value="&lt;font style=&quot;font-size: 18px;&quot;&gt;DBEAVER&lt;/font&gt;" style="rounded=1;whiteSpace=wrap;html=1;" vertex="1" parent="1">
          <mxGeometry x="25" y="410" width="120" height="60" as="geometry" />
        </mxCell>
      </root>
    </mxGraphModel>
  </diagram>
</mxfile>
